<svg width="24" height="22" viewBox="0 0 24 22" fill="none" xmlns="http://www.w3.org/2000/svg">
<path d="M5.25977 21.5977C5.77734 21.9883 6.40234 21.8613 7.11523 21.3438L12.1152 17.6719L17.1152 21.3438C17.8281 21.8613 18.4531 21.9883 18.9707 21.5977C19.4785 21.2168 19.5762 20.582 19.3027 19.7617L17.3203 13.8926L22.3691 10.2695C23.0723 9.77148 23.375 9.19531 23.1699 8.58984C22.9648 7.98438 22.3984 7.69141 21.5293 7.70117L15.3477 7.75L13.4629 1.8418C13.1992 1.00195 12.75 0.542969 12.1152 0.542969C11.4805 0.542969 11.041 1.00195 10.7676 1.8418L8.88281 7.75L2.70117 7.70117C1.83203 7.69141 1.26562 7.98438 1.06055 8.58008C0.845703 9.19531 1.1582 9.77148 1.86133 10.2695L6.91016 13.8926L4.92773 19.7617C4.6543 20.582 4.75195 21.2168 5.25977 21.5977Z" fill="black"/>
</svg>
